<?xml version="1.0" encoding="utf-8"?>
<!-- Generator: Adobe Illustrator 16.0.0, SVG Export Plug-In . SVG Version: 6.00 Build 0)  -->
<!DOCTYPE svg PUBLIC "-//W3C//DTD SVG 1.1//EN" "http://www.w3.org/Graphics/SVG/1.1/DTD/svg11.dtd">
<svg version="1.1" id="Layer_1" xmlns="http://www.w3.org/2000/svg" xmlns:xlink="http://www.w3.org/1999/xlink" x="0px" y="0px"
	 width="100px" height="61.362px" viewBox="0 0 100 61.362" enable-background="new 0 0 100 61.362" xml:space="preserve">
<g>
	<g>
		<path fill="#602E8E" d="M28.429,61.362l0.278-7.354c0-14.216-1.304-25.442-3.897-33.661c-2.592-8.235-6.106-12.344-10.543-12.344
			C9.765,8.003,5.015,12.315,0,20.956l1.566-7.981C8.103,4.331,14.175,0,19.816,0c12.515,0,18.773,15.769,18.773,47.305v2.975
			l4.429-5.357c13.127-15.859,19.684-27.387,19.684-34.584c0-3.397-1.182-6.396-3.562-9.028L70.706,0
			c1.762,2.633,2.645,5.028,2.645,7.186c0,3.027-1.23,6.438-3.688,10.23c-2.474,3.776-7.835,10.463-16.083,20.043L34.242,60.007
			L28.429,61.362z"/>
	</g>
	<g>
		<path fill="#ED1C24" d="M51.745,61.048l0.206-5.712c0-11.052-1.015-19.785-3.027-26.183c-2.013-6.397-4.746-9.588-8.2-9.588
			c-3.509,0-7.212,3.347-11.095,10.073l1.22-6.211c5.081-6.729,9.813-10.094,14.18-10.094c9.748,0,14.607,12.261,14.607,36.798
			v2.307l3.449-4.158c10.207-12.339,15.318-21.312,15.318-26.904c0-2.635-0.925-4.977-2.774-7.024l8.989-1.019
			c1.371,2.048,2.057,3.909,2.057,5.6c0,2.351-0.949,4.996-2.879,7.935c-1.913,2.955-6.074,8.147-12.499,15.607L56.257,60.007
			L51.745,61.048z"/>
	</g>
	<g>
		<path fill="#F99C1C" d="M75.045,60.75l0.149-4.071c0-7.904-0.725-14.144-2.158-18.705c-1.449-4.577-3.402-6.865-5.857-6.865
			c-2.515,0-5.156,2.397-7.938,7.209l0.874-4.441c3.641-4.813,7.016-7.212,10.143-7.212c6.949,0,10.44,8.77,10.44,26.275v1.655
			l2.452-2.975c7.286-8.802,10.938-15.204,10.938-19.208c0-1.889-0.667-3.557-1.986-5.02l6.43-0.728
			c0.979,1.463,1.469,2.79,1.469,3.998c0,1.674-0.686,3.571-2.054,5.672c-1.369,2.102-4.345,5.814-8.931,11.139L78.273,60.006
			L75.045,60.75z"/>
	</g>
</g>
<linearGradient id="SVGID_1_" gradientUnits="userSpaceOnUse" x1="17.0693" y1="-22.0083" x2="87.5288" y2="-62.6881">
	<stop  offset="0.3153" style="stop-color:#602E8E"/>
	<stop  offset="0.4286" style="stop-color:#ED1C24"/>
	<stop  offset="0.6453" style="stop-color:#ED1C24"/>
	<stop  offset="0.7882" style="stop-color:#F99C1C"/>
</linearGradient>
<path fill="url(#SVGID_1_)" d="M88.006-48.365l-0.271,1.172l1.474,0.042c1.105,0.032,1.648,0.292,1.627,0.782
	c-0.063,1.467-2.005,5.078-5.828,10.832l-6.306,9.503c0.785-18.548-2.676-27.934-10.382-28.156
	c-3.228-0.093-6.297,2.042-9.209,6.404l0.618,0.593l1.474,0.042c1.105,0.032,1.648,0.292,1.627,0.782
	c-0.063,1.467-2.005,5.078-5.828,10.832l-6.306,9.503c0.785-18.548-2.676-27.934-10.382-28.156
	c-3.228-0.093-6.297,2.042-9.209,6.404l0.618,0.593l1.474,0.042c1.105,0.032,1.648,0.292,1.627,0.782
	c-0.063,1.467-2.005,5.078-5.828,10.832l-6.306,9.503c0.785-18.548-2.676-27.934-10.382-28.156
	c-3.228-0.093-6.297,2.042-9.209,6.404l0.917,0.548c1.977-3.152,4.161-4.694,6.554-4.625c2.651,0.077,4.804,2.182,6.459,6.314
	c1.566,3.924,2.138,10.875,1.716,20.851l-0.324,5.036l1.953-0.427L38.102-47.01l1.529,0.044l0.29-1.171l-7.146-0.206
	c1.775-2.407,3.71-3.58,5.804-3.52c2.651,0.077,4.804,2.182,6.459,6.314c1.566,3.924,2.138,10.875,1.716,20.851l-0.324,5.036
	l1.953-0.427L66.106-47.01l1.529,0.044l0.29-1.171l-7.146-0.206c1.775-2.407,3.71-3.58,5.804-3.52
	c2.651,0.077,4.804,2.182,6.459,6.314c1.566,3.924,2.138,10.875,1.716,20.851l-0.324,5.036l1.953-0.427L94.111-47.01l1.529,0.044
	l0.29-1.171L88.006-48.365z"/>
</svg>
