<?xml version="1.0" encoding="utf-8"?>
<!-- Generator: Adobe Illustrator 16.0.0, SVG Export Plug-In . SVG Version: 6.00 Build 0)  -->
<!DOCTYPE svg PUBLIC "-//W3C//DTD SVG 1.1//EN" "http://www.w3.org/Graphics/SVG/1.1/DTD/svg11.dtd">
<svg version="1.1" id="Layer_1" xmlns="http://www.w3.org/2000/svg" xmlns:xlink="http://www.w3.org/1999/xlink" x="0px" y="0px"
	 width="100px" height="61.362px" viewBox="0 0 100 61.362" enable-background="new 0 0 100 61.362" xml:space="preserve">
<g>
	<g>
		<path fill="#602E8E" d="M30.189,60.696c-0.423,0-0.836-0.146-1.169-0.42c-0.442-0.364-0.688-0.914-0.667-1.486l0.255-6.754
			c-0.001-12.728-1.177-22.944-3.495-30.293c-2.1-6.671-4.768-10.053-7.931-10.053c-3.363,0-7.345,3.797-11.514,10.981
			c-0.337,0.581-0.95,0.915-1.589,0.916c-0.216,0-0.435-0.038-0.646-0.118c-0.84-0.316-1.329-1.192-1.156-2.073l1.438-7.33
			c0.053-0.273,0.169-0.531,0.337-0.754C10.487,4.803,16.448,0.667,22.279,0.667c12.502,0,18.748,14.047,19.065,42.925l0.828-1.002
			C53.889,28.436,59.83,18.143,59.83,11.998c0-2.668-0.915-4.978-2.797-7.06c-0.461-0.511-0.599-1.237-0.355-1.882
			c0.244-0.644,0.827-1.098,1.511-1.175L68.81,0.678c0.069-0.008,0.139-0.012,0.207-0.012c0.608,0,1.183,0.302,1.526,0.815
			c1.818,2.716,2.74,5.28,2.74,7.621c0,3.127-1.239,6.625-3.683,10.395c-2.324,3.548-7.343,9.806-14.92,18.607L36.922,58.81
			c-0.254,0.297-0.597,0.504-0.978,0.593l-5.338,1.245C30.468,60.68,30.328,60.696,30.189,60.696z"/>
	</g>
	<g>
		<path fill="#F99C1C" d="M51.603,60.407c-0.422,0-0.836-0.146-1.169-0.42c-0.441-0.364-0.687-0.912-0.667-1.482l0.189-5.246
			c-0.001-9.838-0.908-17.743-2.697-23.43c-1.08-3.431-2.958-7.521-5.779-7.521c-1.728,0-4.624,1.446-8.599,8.333
			c-0.336,0.582-0.951,0.918-1.591,0.919c-0.215,0-0.433-0.038-0.645-0.118c-0.841-0.315-1.331-1.192-1.157-2.073l1.12-5.705
			c0.053-0.273,0.168-0.531,0.336-0.753c5.081-6.729,9.82-10,14.489-10c9.834,0,14.825,10.703,15.226,32.691
			c11.23-13.588,13.589-20.261,13.589-23.468c0-1.967-0.678-3.674-2.074-5.22c-0.461-0.511-0.598-1.237-0.354-1.881
			s0.827-1.098,1.511-1.175l8.256-0.936c0.069-0.008,0.139-0.012,0.207-0.012c0.608,0,1.183,0.302,1.526,0.815
			c1.48,2.212,2.199,4.228,2.199,6.165c0,2.529-0.991,5.32-2.946,8.296c-1.801,2.782-5.604,7.537-11.622,14.524L57.141,58.81
			c-0.256,0.298-0.599,0.506-0.981,0.594l-4.144,0.956C51.879,60.392,51.74,60.407,51.603,60.407z"/>
	</g>
	<g>
		<path fill="#ED1C24" d="M73.002,60.134c-0.423,0-0.837-0.146-1.169-0.42c-0.441-0.364-0.687-0.912-0.666-1.483l0.137-3.739
			c-0.001-6.96-0.64-12.555-1.899-16.561c-0.592-1.872-1.854-5.019-3.627-5.019c-0.897,0-2.831,0.741-5.7,5.704
			c-0.336,0.582-0.951,0.917-1.591,0.917c-0.215,0-0.434-0.038-0.646-0.118c-0.841-0.316-1.33-1.193-1.156-2.074l0.802-4.079
			c0.054-0.273,0.169-0.531,0.337-0.753c3.742-4.947,7.268-7.353,10.78-7.353c9.753,0,11.181,14.242,11.39,22.406
			c7.126-8.815,8.659-13.174,8.659-15.291c0-1.266-0.442-2.372-1.351-3.38c-0.461-0.511-0.597-1.237-0.353-1.881
			c0.244-0.644,0.827-1.097,1.511-1.174l5.905-0.668c0.069-0.008,0.139-0.012,0.207-0.012c0.608,0,1.183,0.302,1.526,0.815
			c1.117,1.668,1.66,3.204,1.66,4.693c0,1.897-0.735,3.987-2.185,6.212c-1.315,2.018-4.046,5.429-8.349,10.426l-9.863,11.506
			c-0.256,0.298-0.6,0.506-0.982,0.594l-2.964,0.684C73.278,60.119,73.14,60.134,73.002,60.134z"/>
	</g>
</g>
</svg>
