<?xml version="1.0" encoding="utf-8"?>
<!-- Generator: Adobe Illustrator 16.0.0, SVG Export Plug-In . SVG Version: 6.00 Build 0)  -->
<!DOCTYPE svg PUBLIC "-//W3C//DTD SVG 1.1//EN" "http://www.w3.org/Graphics/SVG/1.1/DTD/svg11.dtd">
<svg version="1.1" id="Layer_1" xmlns="http://www.w3.org/2000/svg" xmlns:xlink="http://www.w3.org/1999/xlink" x="0px" y="0px"
	 width="300px" height="60.604px" viewBox="0.5 -40.604 300 60.604" enable-background="new 0.5 -40.604 300 60.604"
	 xml:space="preserve">
<g>
</g>
<g>
	<linearGradient id="SVGID_1_" gradientUnits="userSpaceOnUse" x1="0.6274" y1="-10.3018" x2="300.5" y2="-10.3018">
		<stop  offset="0.0296" style="stop-color:#00ADEE"/>
		<stop  offset="0.1465" style="stop-color:#2ABDBF"/>
		<stop  offset="0.2868" style="stop-color:#ABD488"/>
		<stop  offset="0.3858" style="stop-color:#E3E556"/>
		<stop  offset="0.4335" style="stop-color:#F8EC3A"/>
		<stop  offset="0.7882" style="stop-color:#EE4036"/>
		<stop  offset="0.8645" style="stop-color:#DE3733"/>
		<stop  offset="0.994" style="stop-color:#BF1F2D"/>
		<stop  offset="1" style="stop-color:#BE1E2C"/>
	</linearGradient>
	<path fill="url(#SVGID_1_)" d="M73.747-2.869c1.083-0.19,1.97,0.554,1.97,1.654V18c0,1.1-0.9,2-2,2H68.85c-1.1,0-2-0.9-2-2V0.343
		c0-1.1,0.887-2.156,1.97-2.346L73.747-2.869z M82.063-4.33c-1.083,0.19-1.97,1.246-1.97,2.346V18c0,1.1,0.9,2,2,2h4.867
		c1.1,0,2-0.9,2-2V-3.542c0-1.1-0.887-1.844-1.97-1.654L82.063-4.33z M121.797-11.311c-1.083,0.19-1.97,1.246-1.97,2.346V18
		c0,1.1,0.9,2,2,2h4.867c1.1,0,2-0.9,2-2v-28.522c0-1.1-0.887-1.844-1.97-1.654L121.797-11.311z M95.309-6.657
		c-1.083,0.19-1.97,1.246-1.97,2.346V18c0,1.1,0.9,2,2,2h4.866c1.1,0,2-0.9,2-2V-5.869c0-1.1-0.887-1.844-1.97-1.654L95.309-6.657z
		 M108.553-8.984c-1.083,0.19-1.97,1.246-1.97,2.346V18c0,1.1,0.9,2,2,2h4.866c1.1,0,2-0.9,2-2V-8.195c0-1.1-0.887-1.844-1.97-1.654
		L108.553-8.984z M135.042-13.638c-1.083,0.19-1.97,1.246-1.97,2.346V18c0,1.1,0.9,2,2,2h4.867c1.1,0,2-0.9,2-2v-30.85
		c0-1.1-0.887-1.844-1.97-1.654L135.042-13.638z M15.842,7.305c-1.083,0.19-1.97,1.246-1.97,2.346V18c0,1.1,0.9,2,2,2h4.867
		c1.1,0,2-0.9,2-2V8.093c0-1.1-0.886-1.844-1.97-1.654L15.842,7.305z M2.597,9.631c-1.083,0.19-1.97,1.247-1.97,2.346V18
		c0,1.1,0.9,2,2,2h4.867c1.1,0,2-0.9,2-2v-7.58c0-1.1-0.886-1.844-1.97-1.654L2.597,9.631z M29.086,4.978
		c-1.083,0.19-1.97,1.246-1.97,2.346V18c0,1.1,0.9,2,2,2h4.867c1.1,0,2-0.9,2-2V5.766c0-1.1-0.886-1.844-1.97-1.654L29.086,4.978z
		 M42.331,2.651c-1.083,0.19-1.97,1.246-1.97,2.346V18c0,1.1,0.9,2,2,2h4.867c1.1,0,2-0.9,2-2V3.439c0-1.1-0.886-1.844-1.97-1.654
		L42.331,2.651z M55.575,0.324c-1.083,0.19-1.97,1.246-1.97,2.346V18c0,1.1,0.9,2,2,2h4.866c1.1,0,2-0.9,2-2V1.112
		c0-1.1-0.887-1.844-1.97-1.654L55.575,0.324z M227.753-29.926c-1.083,0.19-1.97,1.246-1.97,2.346V18c0,1.1,0.9,2,2,2h4.867
		c1.1,0,2-0.9,2-2v-47.138c0-1.1-0.887-1.844-1.97-1.654L227.753-29.926z M240.997-32.253c-1.083,0.19-1.97,1.246-1.97,2.346V18
		c0,1.1,0.9,2,2,2h4.867c1.1,0,2-0.9,2-2v-49.465c0-1.1-0.887-1.844-1.97-1.654L240.997-32.253z M267.486-36.907
		c-1.083,0.19-1.97,1.246-1.97,2.346V18c0,1.1,0.9,2,2,2h4.866c1.1,0,2-0.9,2-2v-54.118c0-1.1-0.887-1.844-1.97-1.654
		L267.486-36.907z M254.242-34.58c-1.083,0.19-1.97,1.246-1.97,2.346V18c0,1.1,0.9,2,2,2h4.866c1.1,0,2-0.9,2-2v-51.792
		c0-1.1-0.887-1.844-1.97-1.654L254.242-34.58z M292.006,18c0,1.1,0.9,2,2,2h4.494c1.1,0,2-0.9,2-2v-56.604c0-1.1-0.9-2-2-2h-4.494
		c-1.1,0-2,0.9-2,2V18z M280.73-39.234c-1.083,0.19-1.97,1.246-1.97,2.346V18c0,1.1,0.9,2,2,2h4.867c1.1,0,2-0.9,2-2v-56.445
		c0-1.1-0.887-1.844-1.97-1.654L280.73-39.234z M201.264-25.272c-1.083,0.19-1.97,1.246-1.97,2.346V18c0,1.1,0.9,2,2,2h4.867
		c1.1,0,2-0.9,2-2v-42.484c0-1.1-0.887-1.844-1.97-1.654L201.264-25.272z M214.509-27.599c-1.083,0.19-1.97,1.246-1.97,2.346V18
		c0,1.1,0.9,2,2,2h4.866c1.1,0,2-0.9,2-2v-44.811c0-1.1-0.887-1.844-1.97-1.654L214.509-27.599z M161.53-18.292
		c-1.083,0.19-1.97,1.246-1.97,2.346V18c0,1.1,0.9,2,2,2h4.867c1.1,0,2-0.9,2-2v-35.503c0-1.1-0.887-1.844-1.97-1.654L161.53-18.292
		z M174.775-20.619c-1.083,0.19-1.97,1.246-1.97,2.346V18c0,1.1,0.9,2,2,2h4.866c1.1,0,2-0.9,2-2v-37.83
		c0-1.1-0.887-1.844-1.97-1.654L174.775-20.619z M188.02-22.945c-1.083,0.19-1.97,1.246-1.97,2.346V18c0,1.1,0.9,2,2,2h4.866
		c1.1,0,2-0.9,2-2v-40.157c0-1.1-0.887-1.844-1.97-1.654L188.02-22.945z M148.286-15.964c-1.083,0.19-1.97,1.246-1.97,2.346V18
		c0,1.1,0.9,2,2,2h4.867c1.1,0,2-0.9,2-2v-33.176c0-1.1-0.887-1.844-1.97-1.654L148.286-15.964z"/>
</g>
<g opacity="0.4">
	<path d="M298.5-39.604c0.552,0,1,0.449,1,1V18c0,0.552-0.448,1-1,1h-4.494c-0.552,0-1-0.448-1-1v-56.604c0-0.551,0.448-1,1-1H298.5
		 M285.993-39.129c0.386,0,0.635,0.269,0.635,0.684V18c0,0.552-0.448,1-1,1h-4.867c-0.552,0-1-0.448-1-1v-54.888
		c0-0.618,0.534-1.254,1.143-1.361l4.928-0.865C285.887-39.124,285.94-39.129,285.993-39.129 M272.748-36.802
		c0.386,0,0.635,0.269,0.635,0.684V18c0,0.552-0.448,1-1,1h-4.866c-0.552,0-1-0.448-1-1v-52.561c0-0.618,0.534-1.254,1.143-1.361
		l4.927-0.865C272.642-36.797,272.695-36.802,272.748-36.802 M259.504-34.475c0.386,0,0.635,0.269,0.635,0.684V18
		c0,0.552-0.448,1-1,1h-4.866c-0.552,0-1-0.448-1-1v-50.234c0-0.618,0.534-1.254,1.143-1.361l4.928-0.865
		C259.397-34.47,259.451-34.475,259.504-34.475 M246.26-32.148c0.386,0,0.635,0.269,0.635,0.684V18c0,0.552-0.448,1-1,1h-4.867
		c-0.552,0-1-0.448-1-1v-47.907c0-0.618,0.534-1.254,1.143-1.361l4.929-0.866C246.153-32.144,246.207-32.148,246.26-32.148
		 M233.016-29.821c0.386,0,0.635,0.269,0.635,0.684V18c0,0.552-0.448,1-1,1h-4.867c-0.552,0-1-0.448-1-1v-45.58
		c0-0.618,0.534-1.254,1.143-1.361l4.928-0.865C232.909-29.816,232.963-29.821,233.016-29.821 M219.771-27.494
		c0.386,0,0.635,0.269,0.635,0.684V18c0,0.552-0.448,1-1,1h-4.866c-0.552,0-1-0.448-1-1v-43.253c0-0.618,0.534-1.254,1.143-1.361
		l4.928-0.865C219.664-27.489,219.718-27.494,219.771-27.494 M206.526-25.167c0.386,0,0.635,0.269,0.635,0.684V18
		c0,0.552-0.448,1-1,1h-4.867c-0.552,0-1-0.448-1-1v-40.926c0-0.618,0.534-1.254,1.143-1.361l4.928-0.866
		C206.42-25.163,206.474-25.167,206.526-25.167 M193.281-22.84c0.386,0,0.635,0.269,0.635,0.684V18c0,0.552-0.448,1-1,1h-4.866
		c-0.552,0-1-0.448-1-1v-38.599c0-0.618,0.534-1.254,1.143-1.361l4.927-0.865C193.175-22.835,193.229-22.84,193.281-22.84
		 M180.037-20.514c0.386,0,0.635,0.269,0.635,0.684V18c0,0.552-0.448,1-1,1h-4.866c-0.552,0-1-0.448-1-1v-36.272
		c0-0.618,0.534-1.254,1.143-1.361l4.927-0.865C179.931-20.509,179.984-20.514,180.037-20.514 M166.793-18.187
		c0.386,0,0.635,0.269,0.635,0.684V18c0,0.552-0.448,1-1,1h-4.867c-0.552,0-1-0.448-1-1v-33.945c0-0.618,0.534-1.254,1.143-1.361
		l4.928-0.865C166.687-18.182,166.74-18.187,166.793-18.187 M153.549-15.86c0.386,0,0.635,0.269,0.635,0.684V18c0,0.552-0.448,1-1,1
		h-4.867c-0.552,0-1-0.448-1-1v-31.618c0-0.618,0.534-1.254,1.143-1.361l4.928-0.866C153.442-15.855,153.496-15.86,153.549-15.86
		 M140.305-13.533c0.386,0,0.635,0.269,0.635,0.684V18c0,0.552-0.448,1-1,1h-4.867c-0.552,0-1-0.448-1-1v-29.292
		c0-0.618,0.534-1.254,1.143-1.361l4.928-0.866C140.198-13.528,140.252-13.533,140.305-13.533 M127.06-11.206
		c0.386,0,0.635,0.269,0.635,0.684V18c0,0.552-0.448,1-1,1h-4.867c-0.552,0-1-0.448-1-1V-8.964c0-0.618,0.534-1.254,1.143-1.361
		l4.929-0.866C126.953-11.201,127.007-11.206,127.06-11.206 M113.814-8.879c0.386,0,0.635,0.269,0.635,0.684V18c0,0.552-0.448,1-1,1
		h-4.866c-0.552,0-1-0.448-1-1V-6.638c0-0.618,0.534-1.254,1.143-1.361l4.927-0.865C113.708-8.874,113.762-8.879,113.814-8.879
		 M100.57-6.552c0.386,0,0.635,0.269,0.635,0.684V18c0,0.552-0.448,1-1,1h-4.866c-0.552,0-1-0.448-1-1V-4.311
		c0-0.618,0.534-1.254,1.143-1.361l4.927-0.866C100.464-6.547,100.518-6.552,100.57-6.552 M87.326-4.225
		c0.386,0,0.635,0.269,0.635,0.684V18c0,0.552-0.448,1-1,1h-4.867c-0.552,0-1-0.448-1-1V-1.984c0-0.618,0.534-1.254,1.143-1.361
		l4.929-0.865C87.22-4.22,87.273-4.225,87.326-4.225 M74.082-1.898c0.386,0,0.635,0.269,0.635,0.684V18c0,0.552-0.448,1-1,1H68.85
		c-0.552,0-1-0.448-1-1V0.343c0-0.618,0.534-1.254,1.143-1.361l4.928-0.866C73.976-1.894,74.029-1.898,74.082-1.898 M60.837,0.429
		c0.386,0,0.635,0.269,0.635,0.684V18c0,0.552-0.448,1-1,1h-4.866c-0.552,0-1-0.448-1-1V2.67c0-0.618,0.534-1.254,1.143-1.361
		l4.927-0.865C60.73,0.434,60.784,0.429,60.837,0.429 M47.593,2.756c0.386,0,0.635,0.269,0.635,0.684V18c0,0.552-0.449,1-1,1h-4.867
		c-0.551,0-1-0.448-1-1V4.997c0-0.618,0.534-1.254,1.143-1.361l4.928-0.865C47.486,2.761,47.54,2.756,47.593,2.756 M34.349,5.082
		c0.386,0,0.635,0.269,0.635,0.684V18c0,0.552-0.449,1-1,1h-4.867c-0.551,0-1-0.448-1-1V7.324c0-0.618,0.534-1.254,1.143-1.361
		l4.927-0.866C34.242,5.087,34.296,5.082,34.349,5.082 M21.104,7.409c0.386,0,0.635,0.269,0.635,0.684V18c0,0.552-0.449,1-1,1
		h-4.867c-0.551,0-1-0.448-1-1V9.65c0-0.618,0.534-1.254,1.143-1.361l4.927-0.865C20.997,7.414,21.051,7.409,21.104,7.409
		 M7.86,9.736c0.386,0,0.635,0.269,0.635,0.684V18c0,0.552-0.449,1-1,1H2.627c-0.551,0-1-0.448-1-1v-6.022
		c0-0.618,0.534-1.254,1.143-1.361l4.928-0.865C7.753,9.741,7.807,9.736,7.86,9.736 M298.5-40.604h-4.494c-1.1,0-2,0.9-2,2V18
		c0,1.1,0.9,2,2,2h4.494c1.1,0,2-0.9,2-2v-56.604C300.5-39.704,299.6-40.604,298.5-40.604L298.5-40.604z M285.993-40.129
		c-0.109,0-0.221,0.01-0.335,0.03l-4.928,0.865c-1.083,0.19-1.97,1.246-1.97,2.346V18c0,1.1,0.9,2,2,2h4.867c1.1,0,2-0.9,2-2
		v-56.445C287.628-39.43,286.918-40.129,285.993-40.129L285.993-40.129z M272.748-37.802c-0.109,0-0.221,0.01-0.335,0.03
		l-4.927,0.865c-1.083,0.19-1.97,1.246-1.97,2.346V18c0,1.1,0.9,2,2,2h4.866c1.1,0,2-0.9,2-2v-54.118
		C274.383-37.103,273.673-37.802,272.748-37.802L272.748-37.802z M259.504-35.475c-0.109,0-0.221,0.01-0.335,0.03l-4.927,0.865
		c-1.083,0.19-1.97,1.246-1.97,2.346V18c0,1.1,0.9,2,2,2h4.866c1.1,0,2-0.9,2-2v-51.792
		C261.139-34.776,260.429-35.475,259.504-35.475L259.504-35.475z M246.26-33.148c-0.109,0-0.221,0.01-0.335,0.03l-4.928,0.866
		c-1.083,0.19-1.97,1.246-1.97,2.346V18c0,1.1,0.9,2,2,2h4.867c1.1,0,2-0.9,2-2v-49.465
		C247.895-32.449,247.185-33.148,246.26-33.148L246.26-33.148z M233.016-30.821c-0.109,0-0.221,0.01-0.335,0.03l-4.928,0.865
		c-1.083,0.19-1.97,1.246-1.97,2.346V18c0,1.1,0.9,2,2,2h4.867c1.1,0,2-0.9,2-2v-47.138C234.65-30.122,233.94-30.821,233.016-30.821
		L233.016-30.821z M219.771-28.494c-0.109,0-0.221,0.01-0.335,0.03l-4.927,0.865c-1.083,0.19-1.97,1.246-1.97,2.346V18
		c0,1.1,0.9,2,2,2h4.866c1.1,0,2-0.9,2-2v-44.811C221.405-27.795,220.695-28.494,219.771-28.494L219.771-28.494z M206.526-26.167
		c-0.109,0-0.221,0.01-0.335,0.03l-4.928,0.866c-1.083,0.19-1.97,1.246-1.97,2.346V18c0,1.1,0.9,2,2,2h4.867c1.1,0,2-0.9,2-2
		v-42.484C208.161-25.468,207.451-26.167,206.526-26.167L206.526-26.167z M193.281-23.84c-0.109,0-0.221,0.01-0.335,0.03
		l-4.927,0.865c-1.083,0.19-1.97,1.246-1.97,2.346V18c0,1.1,0.9,2,2,2h4.866c1.1,0,2-0.9,2-2v-40.157
		C194.916-23.141,194.206-23.84,193.281-23.84L193.281-23.84z M180.037-21.514c-0.109,0-0.221,0.01-0.335,0.03l-4.927,0.865
		c-1.083,0.19-1.97,1.246-1.97,2.346V18c0,1.1,0.9,2,2,2h4.866c1.1,0,2-0.9,2-2v-37.83
		C181.672-20.814,180.962-21.514,180.037-21.514L180.037-21.514z M166.793-19.187c-0.109,0-0.221,0.01-0.335,0.03l-4.928,0.865
		c-1.083,0.19-1.97,1.246-1.97,2.346V18c0,1.1,0.9,2,2,2h4.867c1.1,0,2-0.9,2-2v-35.503
		C168.428-18.487,167.718-19.187,166.793-19.187L166.793-19.187z M153.549-16.86c-0.109,0-0.221,0.01-0.335,0.03l-4.928,0.866
		c-1.083,0.19-1.97,1.246-1.97,2.346V18c0,1.1,0.9,2,2,2h4.867c1.1,0,2-0.9,2-2v-33.176C155.184-16.161,154.474-16.86,153.549-16.86
		L153.549-16.86z M140.305-14.533c-0.109,0-0.221,0.01-0.335,0.03l-4.928,0.866c-1.083,0.19-1.97,1.246-1.97,2.346V18
		c0,1.1,0.9,2,2,2h4.867c1.1,0,2-0.9,2-2v-30.85C141.939-13.834,141.229-14.533,140.305-14.533L140.305-14.533z M127.06-12.206
		c-0.109,0-0.221,0.01-0.335,0.03l-4.928,0.866c-1.083,0.19-1.97,1.246-1.97,2.346V18c0,1.1,0.9,2,2,2h4.867c1.1,0,2-0.9,2-2
		v-28.522C128.694-11.507,127.984-12.206,127.06-12.206L127.06-12.206z M113.814-9.879c-0.109,0-0.221,0.01-0.335,0.03l-4.927,0.865
		c-1.083,0.19-1.97,1.246-1.97,2.346V18c0,1.1,0.9,2,2,2h4.866c1.1,0,2-0.9,2-2V-8.195C115.449-9.18,114.739-9.879,113.814-9.879
		L113.814-9.879z M100.57-7.552c-0.109,0-0.221,0.01-0.335,0.03l-4.927,0.866c-1.083,0.19-1.97,1.246-1.97,2.346V18c0,1.1,0.9,2,2,2
		h4.866c1.1,0,2-0.9,2-2V-5.869C102.205-6.853,101.495-7.552,100.57-7.552L100.57-7.552z M87.326-5.225
		c-0.109,0-0.221,0.01-0.335,0.03L82.063-4.33c-1.083,0.19-1.97,1.246-1.97,2.346V18c0,1.1,0.9,2,2,2h4.867c1.1,0,2-0.9,2-2V-3.542
		C88.961-4.526,88.251-5.225,87.326-5.225L87.326-5.225z M74.082-2.898c-0.109,0-0.221,0.01-0.335,0.03l-4.928,0.866
		c-1.083,0.19-1.97,1.246-1.97,2.346V18c0,1.1,0.9,2,2,2h4.867c1.1,0,2-0.9,2-2V-1.215C75.717-2.199,75.007-2.898,74.082-2.898
		L74.082-2.898z M60.837-0.571c-0.109,0-0.221,0.01-0.335,0.03l-4.927,0.865c-1.083,0.19-1.97,1.246-1.97,2.346V18c0,1.1,0.9,2,2,2
		h4.866c1.1,0,2-0.9,2-2V1.112C62.472,0.128,61.762-0.571,60.837-0.571L60.837-0.571z M47.593,1.756c-0.109,0-0.221,0.01-0.335,0.03
		l-4.927,0.865c-1.083,0.19-1.97,1.246-1.97,2.346V18c0,1.1,0.9,2,2,2h4.867c1.1,0,2-0.9,2-2V3.439
		C49.228,2.455,48.518,1.756,47.593,1.756L47.593,1.756z M34.349,4.082c-0.109,0-0.221,0.01-0.335,0.03l-4.927,0.866
		c-1.083,0.19-1.97,1.246-1.97,2.346V18c0,1.1,0.9,2,2,2h4.867c1.1,0,2-0.9,2-2V5.766C35.983,4.781,35.274,4.082,34.349,4.082
		L34.349,4.082z M21.104,6.409c-0.109,0-0.221,0.01-0.335,0.03l-4.927,0.865c-1.083,0.19-1.97,1.246-1.97,2.346V18c0,1.1,0.9,2,2,2
		h4.867c1.1,0,2-0.9,2-2V8.093C22.739,7.108,22.029,6.409,21.104,6.409L21.104,6.409z M7.86,8.736c-0.109,0-0.221,0.01-0.335,0.03
		L2.597,9.631c-1.083,0.19-1.97,1.247-1.97,2.346V18c0,1.1,0.9,2,2,2h4.867c1.1,0,2-0.9,2-2v-7.58
		C9.495,9.436,8.785,8.736,7.86,8.736L7.86,8.736z"/>
</g>
</svg>
