<?xml version="1.0" encoding="utf-8"?>
<!-- Generator: Adobe Illustrator 16.0.0, SVG Export Plug-In . SVG Version: 6.00 Build 0)  -->
<!DOCTYPE svg PUBLIC "-//W3C//DTD SVG 1.1//EN" "http://www.w3.org/Graphics/SVG/1.1/DTD/svg11.dtd">
<svg version="1.1" id="Layer_1" xmlns="http://www.w3.org/2000/svg" xmlns:xlink="http://www.w3.org/1999/xlink" x="0px" y="0px"
	 width="90px" height="129px" viewBox="-257 -29.9 90 129" style="enable-background:new -257 -29.9 90 129;" xml:space="preserve">
<style type="text/css">
<![CDATA[
	.st0{fill:#E0E5E0;}
	.st1{fill:#2E1846;}
	.st2{fill:none;}
	.st3{fill:#E0E5E0;stroke:#0F0819;stroke-miterlimit:10;}
]]>
</style>
<g>
	<rect x="-257" y="-29.9" class="st2" width="90" height="129"/>
	<g>
		<g>
			<path class="st1" d="M-173.8,110.3c-0.1-1.5-1.2-6.2-1.9-8.2c-1.4-4.6-4.6-14.1-4.4-18.9c0.3-4.5,2.5-10.2,2.5-10.2l1.7-3.9
				l-3.1,3.3c-0.2,0.2-5.1,5.5-8.2,13.4c-5.2,13-2.1,22.5,1.8,28.4c6.4,10-3,32.2-3.1,32.5l-3.6,7.7
				C-176.2,132.4-173,123.9-173.8,110.3z"/>
			<path class="st1" d="M-192.7,150.4l0.6-1.5c0.1-0.2,9.5-22.5,3.1-32.5c-0.7-1.1-1.4-2.3-2-3.6c-2.8-5.9-4.1-14.1,0.1-24.7
				c-1,1.6-2.2,3.8-2.8,4.8c-1.4,2.9-2.4,5.6-4,12.2c-2.1,8.8-1.8,15.6,0.8,19.6c6.3,9.5,2.7,24.7,2.6,24.8l-3.8,13.9L-192.7,150.4z
				"/>
			<path class="st0" d="M-182.6,136.3c2-7.6,3.2-17.3-0.8-23.4c-5-7.7-5.6-16.6-1.6-26.5c1-2.5,2.2-4.7,3.3-6.6
				c-0.2,1-0.3,2.1-0.4,3.1c-0.3,4.7,2.2,12.7,3.9,18c0.2,0.6,0.4,1.2,0.5,1.7c0.6,2.1,1.7,6.6,1.8,7.7
				C-175.4,119.1-176.5,125.6-182.6,136.3z"/>
		</g>
	</g>
	<g>
		<g>
			<path class="st1" d="M-173.8-18.7c-0.1-1.5-1.2-6.2-1.9-8.2c-1.4-4.6-4.6-14.1-4.4-18.9c0.3-4.5,2.5-10.2,2.5-10.2l1.7-3.9
				l-3.1,3.3c-0.2,0.2-5.1,5.5-8.2,13.4c-5.2,13-2.1,22.5,1.8,28.4c6.4,10-3,32.2-3.1,32.5l-3.6,7.7C-176.2,3.4-173-5.1-173.8-18.7z
				"/>
			<path class="st1" d="M-192.7,21.4l0.6-1.5c0.1-0.2,9.5-22.5,3.1-32.5c-0.7-1.1-1.4-2.3-2-3.6c-2.8-5.9-4.1-14.1,0.1-24.7
				c-1,1.6-2.2,3.8-2.8,4.8c-1.4,2.9-2.4,5.6-4,12.2c-2.1,8.8-1.8,15.6,0.8,19.6c6.3,9.5,2.7,24.7,2.6,24.8l-3.8,13.9L-192.7,21.4z"
				/>
			<path class="st1" d="M-193.7,54.1c12.4-16,34.5-36.9,35.2-55.9c0.4-11.5-8-15.2-8.2-15.4l-5.5-7.3c0,0,1.9,7,2,8.9
				c1,17.2-3.6,22-30.3,61c-9.5,12.4-15,28.4-15.9,46.2c-0.7,13.3,1.9,22.6,2,23c0.7,2.8,2.7,11.4,2.7,11.4l0.4-12.2
				C-211.2,113.4-209.4,72.1-193.7,54.1z"/>
			<path class="st1" d="M-207.3,119.1c0.1-0.3,5.7-25.6,25.9-51.5c8.4-10.7,14.8-28.2,18.5-38.1c1.2-3.2,3.4-9.7,4.2-13.1
				c0.4-1.7,1.1-5.2,1.6-8.3c-5,16.8-23.1,34.4-33.9,48.3c-15.7,18-17.5,59.2-17.5,59.6l-0.3,10.4L-207.3,119.1z"/>
			<path class="st0" d="M-182.6,7.3c2-7.6,3.2-17.3-0.8-23.4c-5-7.7-5.6-16.6-1.6-26.5c1-2.5,2.2-4.7,3.3-6.6
				c-0.2,1-0.3,2.1-0.4,3.1c-0.3,4.7,2.2,12.7,3.9,18c0.2,0.6,0.4,1.2,0.5,1.7c0.6,2.1,1.7,6.6,1.8,7.7
				C-175.4-9.9-176.5-3.4-182.6,7.3z"/>
			<path class="st0" d="M-213.1,110c-0.7-3.9-1.5-10.4-1.1-18.4c0.9-17.4,6.2-32.9,15.5-45l0.1-0.1c2.4-3.6,4.7-6.8,6.8-9.8
				c20.9-30.4,24.8-36,23.9-52.2c0.2,0.1,0.3,0.2,0.5,0.3c0.3,0.2,1.3,0.7,2.3,1.6c2.2,2,4.9,5.6,4.6,11.7
				c-0.5,14.1-13.9,29.8-25.6,43.5c-3.3,3.9-6.4,7.5-9.2,11c-6.7,7.7-11.8,20.3-15.1,37.4C-212,98.5-212.8,105.9-213.1,110z"/>
			<path class="st0" d="M-190.9,10C-191,5-192-0.7-195-5.3c-2.3-3.5-2.5-9.8-0.5-17.9c0-0.1,0.1-0.3,0.1-0.4
				c0.4,2.9,1.2,5.8,2.5,8.5c0.6,1.3,1.3,2.6,2.1,3.8C-187.7-6.5-188.8,2.3-190.9,10z"/>
			<path class="st0" d="M-205.7,106.6c1.5-13.1,5.5-36.6,16.2-48.8l0.1-0.1c2.7-3.4,5.8-7.1,9.1-10.9c5.5-6.4,11.4-13.3,16.2-20.4
				c-0.3,0.9-0.6,1.7-0.8,2.3c-3.5,9.4-9.9,26.9-18.2,37.5C-195,81.5-201.9,96.5-205.7,106.6z"/>
		</g>
		<path class="st3" d="M-224.5,13c-0.6,3.8,2,8.3,2,8.3c-2.3-3.9-4.6-4.4-6.6-4.5c-1.7-0.1-5.6,1.2-4.9,5.3c0.8,5.3,6.1,3.2,6.1,3.2
			s-2.5-2.2-0.3-3.7c1.8-1.1,6.3,1.6,5.9,3c-0.3,1-1,0.5-1.2,1.2c-0.1,0.3-2.2,1.5-2.2,1.6c0,0.4,3.2,0.8,3.2,0.8s-1.6,0.2-1.6,1.3
			c0,1.1,1.8,1,1.8,1s-0.1,0.4-0.1,2.1c0,1.7,1,3.4,1,3.4s1-1.8,0.9-3.4c0-1.7-0.2-2.1-0.2-2.1s1.9,0.1,1.8-1
			c-0.1-1.1-1.6-1.3-1.6-1.3s3.2-0.5,3.2-0.8c0-0.1-2.1-1.3-2.2-1.6c-0.2-0.7-0.9-0.2-1.2-1.2c-0.4-1.4,4.1-4.2,5.9-3.1
			c2.2,1.4-0.2,3.7-0.2,3.7s5.3,2,6.1-3.3c0.6-4.2-3.2-5.4-5-5.3c-2,0.2-4.3,0.7-6.6,4.6c0,0,2.5-4.6,1.9-8.4c-0.6-3.8-3-8.5-3-8.5
			S-223.9,9.2-224.5,13z"/>
	</g>
	<g>
		<g>
			<path class="st1" d="M-283.7,54.1c12.4-16,34.5-36.9,35.2-55.9c0.4-11.5-8-15.2-8.2-15.4l-5.5-7.3c0,0,1.9,7,2,8.9
				c1,17.2-3.6,22-30.3,61c-9.5,12.4-15,28.4-15.9,46.2c-0.7,13.3,1.9,22.6,2,23c0.7,2.8,2.7,11.4,2.7,11.4l0.4-12.2
				C-301.2,113.4-299.4,72.1-283.7,54.1z"/>
			<path class="st1" d="M-297.3,119.1c0.1-0.3,5.7-25.6,25.9-51.5c8.4-10.7,14.8-28.2,18.5-38.1c1.2-3.2,3.4-9.7,4.2-13.1
				c0.4-1.7,1.1-5.2,1.6-8.3c-5,16.8-23.1,34.4-33.9,48.3c-15.7,18-17.5,59.2-17.5,59.6l-0.3,10.4L-297.3,119.1z"/>
			<path class="st0" d="M-303.1,110c-0.7-3.9-1.5-10.4-1.1-18.4c0.9-17.4,6.2-32.9,15.5-45l0.1-0.1c2.4-3.6,4.7-6.8,6.8-9.8
				c20.9-30.4,24.8-36,23.9-52.2c0.2,0.1,0.3,0.2,0.5,0.3c0.3,0.2,1.3,0.7,2.3,1.6c2.2,2,4.9,5.6,4.6,11.7
				c-0.5,14.1-13.9,29.8-25.6,43.5c-3.3,3.9-6.4,7.5-9.2,11c-6.7,7.7-11.8,20.3-15.1,37.4C-302,98.5-302.8,105.9-303.1,110z"/>
			<path class="st0" d="M-295.7,106.6c1.5-13.1,5.5-36.6,16.2-48.8l0.1-0.1c2.7-3.4,5.8-7.1,9.1-10.9c5.5-6.4,11.4-13.3,16.2-20.4
				c-0.3,0.9-0.6,1.7-0.8,2.3c-3.5,9.4-9.9,26.9-18.2,37.5C-285,81.5-291.9,96.5-295.7,106.6z"/>
		</g>
	</g>
	<g>
		<g>
			<path class="st1" d="M-193.7-74.9c12.4-16,34.5-36.9,35.2-55.9c0.4-11.5-8-15.2-8.2-15.4l-5.5-7.3c0,0,1.9,7,2,8.9
				c1,17.2-3.6,22-30.3,61c-9.5,12.4-15,28.4-15.9,46.2c-0.7,13.3,1.9,22.6,2,23c0.7,2.8,2.7,11.4,2.7,11.4l0.4-12.2
				C-211.2-15.6-209.4-56.9-193.7-74.9z"/>
			<path class="st1" d="M-207.3-9.9c0.1-0.3,5.7-25.6,25.9-51.5c8.4-10.7,14.8-28.2,18.5-38.1c1.2-3.2,3.4-9.7,4.2-13.1
				c0.4-1.7,1.1-5.2,1.6-8.3c-5,16.8-23.1,34.4-33.9,48.3c-15.7,18-17.5,59.2-17.5,59.6l-0.3,10.4L-207.3-9.9z"/>
			<path class="st0" d="M-213.1-19c-0.7-3.9-1.5-10.4-1.1-18.4c0.9-17.4,6.2-32.9,15.5-45l0.1-0.1c2.4-3.6,4.7-6.8,6.8-9.8
				c20.9-30.4,24.8-36,23.9-52.2c0.2,0.1,0.3,0.2,0.5,0.3c0.3,0.2,1.3,0.7,2.3,1.6c2.2,2,4.9,5.6,4.6,11.7
				c-0.5,14.1-13.9,29.8-25.6,43.5c-3.3,3.9-6.4,7.5-9.2,11c-6.7,7.7-11.8,20.3-15.1,37.4C-212-30.5-212.8-23.1-213.1-19z"/>
			<path class="st0" d="M-205.7-22.4c1.5-13.1,5.5-36.6,16.2-48.8l0.1-0.1c2.7-3.4,5.8-7.1,9.1-10.9c5.5-6.4,11.4-13.3,16.2-20.4
				c-0.3,0.9-0.6,1.7-0.8,2.3c-3.5,9.4-9.9,26.9-18.2,37.5C-195-47.5-201.9-32.5-205.7-22.4z"/>
		</g>
	</g>
	<g>
		<g>
			<path class="st1" d="M-283.7-74.9c12.4-16,34.5-36.9,35.2-55.9c0.4-11.5-8-15.2-8.2-15.4l-5.5-7.3c0,0,1.9,7,2,8.9
				c1,17.2-3.6,22-30.3,61c-9.5,12.4-15,28.4-15.9,46.2c-0.7,13.3,1.9,22.6,2,23c0.7,2.8,2.7,11.4,2.7,11.4l0.4-12.2
				C-301.2-15.6-299.4-56.9-283.7-74.9z"/>
			<path class="st1" d="M-297.3-9.9c0.1-0.3,5.7-25.6,25.9-51.5c8.4-10.7,14.8-28.2,18.5-38.1c1.2-3.2,3.4-9.7,4.2-13.1
				c0.4-1.7,1.1-5.2,1.6-8.3c-5,16.8-23.1,34.4-33.9,48.3c-15.7,18-17.5,59.2-17.5,59.6l-0.3,10.4L-297.3-9.9z"/>
			<path class="st0" d="M-303.1-19c-0.7-3.9-1.5-10.4-1.1-18.4c0.9-17.4,6.2-32.9,15.5-45l0.1-0.1c2.4-3.6,4.7-6.8,6.8-9.8
				c20.9-30.4,24.8-36,23.9-52.2c0.2,0.1,0.3,0.2,0.5,0.3c0.3,0.2,1.3,0.7,2.3,1.6c2.2,2,4.9,5.6,4.6,11.7
				c-0.5,14.1-13.9,29.8-25.6,43.5c-3.3,3.9-6.4,7.5-9.2,11c-6.7,7.7-11.8,20.3-15.1,37.4C-302-30.5-302.8-23.1-303.1-19z"/>
			<path class="st0" d="M-295.7-22.4c1.5-13.1,5.5-36.6,16.2-48.8l0.1-0.1c2.7-3.4,5.8-7.1,9.1-10.9c5.5-6.4,11.4-13.3,16.2-20.4
				c-0.3,0.9-0.6,1.7-0.8,2.3c-3.5,9.4-9.9,26.9-18.2,37.5C-285-47.5-291.9-32.5-295.7-22.4z"/>
		</g>
	</g>
</g>
</svg>
