<?xml version="1.0" encoding="utf-8"?>
<!-- Generator: Adobe Illustrator 16.0.0, SVG Export Plug-In . SVG Version: 6.00 Build 0)  -->
<!DOCTYPE svg PUBLIC "-//W3C//DTD SVG 1.1//EN" "http://www.w3.org/Graphics/SVG/1.1/DTD/svg11.dtd">
<svg version="1.1" id="Layer_1" xmlns="http://www.w3.org/2000/svg" xmlns:xlink="http://www.w3.org/1999/xlink" x="0px" y="0px"
	 width="1220.8px" height="981.6px" viewBox="-352.7 -263.4 1220.8 981.6"
	 style="enable-background:new -352.7 -263.4 1220.8 981.6;" xml:space="preserve">
<style type="text/css">
<![CDATA[
	.st0{fill:#E0E5E0;}
	.st1{fill:#2E1846;}
]]>
</style>
<g>
	<path class="st1" d="M-180.2-84.5c-6.2-6.4-30.1-23.3-40.9-29.9c-24.7-15.3-76.4-45.2-94.2-68.2c-16.6-21.4-28.7-55.9-28.8-56.1
		l-7.7-24.6l-0.9,27.3c-0.1,1.8-1.2,44.7,15.6,92.8c27.8,79.5,79.1,109.7,120.2,121.2c68.4,19.8,113.4,157.4,113.9,158.9l14.3,48.9
		C-104,24.9-122.8-26-180.2-84.5z"/>
	<path class="st1" d="M-107.5,171.5l-3-9c-0.5-1.4-45.5-139.1-113.9-158.9c-7.4-2.1-15.2-4.7-23-8.2c-35.6-15.7-74-47.5-96.9-112
		c2,11,4.9,26.1,6.6,32.8c4.7,18.6,11,34.7,29.9,70.6c25.2,48,53.3,77.5,81,85.2c65.7,18.3,109.4,100.8,109.8,101.7l37.6,78
		L-107.5,171.5z"/>
	<path class="st1" d="M-84.9,277.2l-37.3-77.6c-0.4-0.9-44.1-83.4-109.8-101.7c-27.8-7.7-55.8-37.2-81-85.2c-7.4-14-12.8-25-17-34.3
		c8.8,25.7,39,113.5,46.8,137.2c6.4,19.6,25,84.3,43.6,75.4c46.5-22.3,163.2,111.1,163.2,111.1S-79.4,292.1-84.9,277.2z"/>
	<path class="st1" d="M16.8,323.3C10.1,202,27.5,20.8-44-68c-43.2-53.6-96.1-37.3-97.8-37.3l-54-11.4c0,0,36.4,24.3,44,32.1
		C-79.3-10.6-81.2,29-48.4,310.2c6,93.5,44.2,187.4,110.3,271.5c49.4,62.8,97.7,94.4,99.7,95.7c14.4,9.8,57.4,40.8,57.4,40.8
		l-46.4-56.8C171.3,659.8,16.8,466.1,16.8,323.3z"/>
	<path class="st1" d="M211,670.3c-0.7-1.4-74.8-138.1-85.7-334.5c-4.5-81.5-44-185.6-66.7-245c-7.3-19-23.1-57.3-32.8-75.5
		c-5-9.3-15.3-27.7-25.4-44c43.7,95.9,31.2,246.6,37.1,352c0,142.8,154.4,336.6,155.7,338.1l39.5,48.3L211,670.3z"/>
	<path class="st1" d="M253.2,699.9c0,0-30.2-51.3-40.2-76.4c-25-63.2-55.6-174.2-61.9-287.7c-3.4-61.7-38.4-182.4-71.9-243.1
		c8.4,11.7,163.4,128,112.9,134.6c-46.3,6.1,66.5,93,8.9,99.5c-23.7,2.7,75.2,91.2,17.5,99.5C181.2,431.7,232,646.9,253.2,699.9z"/>
	<path class="st1" d="M604,185.6l14.3-48.9c0.5-1.4,45.5-139.1,113.9-158.9c41.2-11.5,92.4-41.7,120.2-121.2
		c16.9-48.1,15.7-91,15.6-92.8l-0.9-27.3l-7.7,24.6c-0.1,0.2-12.2,34.7-28.8,56.1c-17.8,23-69.5,53-94.2,68.2
		c-10.8,6.6-34.6,23.6-40.9,29.9C638.2-26,619.5,24.9,604,185.6z"/>
	<path class="st1" d="M595,251.9l37.6-78c0.4-0.9,44.1-83.4,109.8-101.7c27.8-7.7,55.8-37.2,81-85.2c18.9-36,25.2-52.1,29.9-70.6
		c1.7-6.8,4.6-21.9,6.6-32.8C837-52,798.6-20.2,763-4.6c-7.9,3.5-15.6,6.1-23,8.2C671.5,23.4,626.5,161.1,626,162.5l-3,9L595,251.9z
		"/>
	<path class="st1" d="M591.7,302.2c0,0,116.8-133.4,163.2-111.1c18.6,8.9,37.2-55.7,43.6-75.4c7.8-23.8,38-111.6,46.8-137.2
		c-4.2,9.3-9.6,20.3-17,34.3c-25.2,48-53.3,77.5-81,85.2c-65.7,18.3-109.4,100.8-109.8,101.7l-37.3,77.6
		C594.9,292.1,591.7,302.2,591.7,302.2z"/>
	<path class="st1" d="M342.9,661.4l-46.4,56.8c0,0,43-31,57.4-40.8c2-1.4,50.3-32.9,99.7-95.7c66.1-84.1,104.2-178,110.3-271.5
		C596.7,29,594.8-10.6,667.2-84.5c7.6-7.8,44-32.1,44-32.1l-54,11.4c-1.7,0-54.6-16.3-97.8,37.3c-71.6,88.7-54.1,270-60.9,391.2
		C498.6,466.1,344.2,659.8,342.9,661.4z"/>
	<path class="st1" d="M282.7,709.7l39.5-48.3c1.3-1.5,155.7-195.3,155.7-338.1c5.9-105.4-6.6-256.1,37.1-352
		c-10.1,16.3-20.5,34.7-25.4,44c-9.7,18.2-25.5,56.5-32.8,75.5c-22.7,59.4-62.2,163.5-66.7,245c-10.9,196.4-85,333.1-85.7,334.5
		L282.7,709.7z"/>
	<path class="st1" d="M262.3,699.9c0,0,30.2-51.3,40.2-76.4c25-63.2,55.6-174.2,61.9-287.7c3.4-61.7,38.4-182.4,71.9-243.1
		c-8.4,11.7-163.4,128-112.9,134.6c46.3,6.1-66.5,93-8.9,99.5c23.7,2.7-75.2,91.2-17.6,99.5C334.3,431.7,283.4,646.9,262.3,699.9z"
		/>
	<path class="st0" d="M-117.5,68.2c-21.2-42.3-53.8-90.6-95.7-102.7c-53-14.8-90.6-52.8-111.7-113.1c-5.3-15.2-8.8-29.8-11-42.7
		c3.2,5.5,6.7,10.8,10.3,15.6c17.3,22.3,60.2,48.4,88.5,65.7c3.3,2,6.4,3.9,9.1,5.6c11,6.8,33.5,23,38.4,28
		C-152.8-38.2-132.1-4.8-117.5,68.2z"/>
	<path class="st0" d="M149.4,652.3c-18.7-14.9-47.8-41.1-77.4-78.6C7.5,491.7-29.7,400.3-35.5,309.3l-0.1-0.7
		c-3-25.7-5.7-49.3-8.2-71.2C-68.9,17.8-73.6-22.8-141.4-92.4c1.3,0,2.3-0.3,3.4-0.5c2.3-0.5,8.4-1.8,16.8-1.8
		c17.8,0,44,6,67.1,34.8c53.3,66,54.6,189,55.9,297.6c0.3,30.6,0.7,59.5,2.1,85.9C4,385.2,30.7,461.9,83.1,551.8
		C108.8,596,134.4,632.2,149.4,652.3z"/>
	<path class="st0" d="M632.9,68.2c14.6-73,35.4-106.4,71.9-143.7c4.9-5,27.4-21.2,38.4-28c2.7-1.7,5.8-3.6,9.1-5.6
		c28.4-17.3,71.2-43.4,88.5-65.7c3.7-4.8,7.2-10.1,10.4-15.6c-2.2,12.9-5.7,27.5-11,42.7c-21.1,60.3-58.6,98.3-111.5,113
		C686.8-22.4,654.2,25.9,632.9,68.2z"/>
	<path class="st0" d="M366.1,652.3c14.9-20.1,40.6-56.3,66.3-100.5c52.4-89.9,79-166.6,79.1-228.2c1.5-26.5,1.8-55.4,2.1-85.9
		c1.2-108.5,2.6-231.5,55.9-297.6c23.2-28.8,49.3-34.8,67.1-34.8c8.4,0,14.5,1.3,16.8,1.8c1.1,0.2,2.1,0.5,3.4,0.5
		C589-22.8,584.4,17.8,559.3,237.5c-2.5,21.9-5.2,45.5-8.2,71.2l-0.1,0.7c-5.9,90.9-43,182.3-107.5,264.3
		C413.9,611.3,384.8,637.4,366.1,652.3z"/>
	<path class="st0" d="M-144.7,112.8c-19.9-22-46.6-44.2-78.6-53.1c-23.9-6.6-49.9-34.6-73.1-78.8c-0.4-0.7-0.7-1.4-1.1-2.1
		C-284.2-9.5-269.2,0-252.7,7.3c8,3.5,16.3,6.5,24.8,8.8C-195,25.6-165.4,70-144.7,112.8z"/>
	<path class="st0" d="M169.5,607.3c-45-65.1-119.2-187.1-119.2-284l0-0.7c-1.5-26-1.8-54.7-2.1-85.2c-0.6-50.6-1.2-104.9-7.2-155.9
		c2.1,5.1,3.9,9.8,5.5,13.9c21.5,56.2,61.4,160.7,65.9,241.1C118.8,451.6,146.9,547.1,169.5,607.3z"/>
	<path class="st0" d="M660.2,112.8C680.9,70,710.5,25.6,743.5,16c8.3-2.3,16.7-5.3,24.6-8.8C784.7,0,799.6-9.5,813-21.2
		c-0.4,0.7-0.7,1.4-1.1,2.1c-23.2,44.2-49.2,72.1-73.1,78.8C706.8,68.7,680.1,90.8,660.2,112.8z"/>
	<path class="st0" d="M345.9,607.3c22.6-60.2,50.7-155.7,57.1-270.8c4.5-80.4,44.4-185,65.9-241.1c1.6-4.1,3.4-8.8,5.5-13.9
		c-6,51-6.6,105.3-7.2,155.9c-0.3,30.4-0.7,59.2-2.1,85.2l0,0.7C465.1,420.2,390.9,542.2,345.9,607.3z"/>
	<path class="st0" d="M-115.6,243.3c-34.4-32.2-79.6-67.6-112.1-67.6c-5.4,0-10.5,0.9-15.1,2.7c-4.6-4-12.7-18.3-26.2-60.8
		c-0.7-2.3-1.4-4.3-1.9-6c-2.1-6.4-5.8-17.4-10.4-30.8c14.9,15.2,30.3,25.2,45.8,29.6c58.5,16.3,100,92,101.7,95L-115.6,243.3z"/>
	<path class="st0" d="M201.6,549.4c-17.7-60.7-33.2-136.8-37.6-214.4c-2.7-48.7-23.9-130.3-48.4-193.5
		c13.6,11.7,28.5,24.8,41.3,37.3c20.8,20.2,28.2,30.9,30.9,36.1c-11,2.2-15.9,8.1-18.1,12.9c-6.8,14.8,4.7,32.3,17.9,52.5
		c5.6,8.6,17.1,26,17.3,32.4c-0.8,0.3-2.4,0.9-5.3,1.2c-6.2,0.7-11.2,4.1-13.6,9.4c-5.2,11.1,2.7,23.1,15.8,42.8
		c6.9,10.4,25.2,37.9,22,44.9c-0.1,0.2-1.8,1.7-7.1,2.4c-5,0.7-12.1,3.4-17.3,12.3C189.4,443.3,190.1,484.9,201.6,549.4z"/>
	<path class="st0" d="M649.2,205.5c1.6-3.1,43.1-78.7,101.7-95c15.5-4.3,30.9-14.3,45.8-29.5c-4.6,13.4-8.3,24.4-10.4,30.8
		c-0.6,1.7-1.2,3.7-1.9,6c-13.5,42.5-21.6,56.8-26.2,60.8c-4.6-1.8-9.7-2.8-15.1-2.8c-32.4,0-77.6,35.4-112.1,67.6L649.2,205.5z"/>
	<path class="st0" d="M313.9,549.4c11.5-64.6,12.1-106.1,2-123.6c-5.2-8.9-12.2-11.6-17.3-12.3c-5.3-0.8-6.9-2.2-7.1-2.4
		c-3.1-7,15.1-34.6,22-44.9c13.1-19.8,21-31.7,15.8-42.8c-2.4-5.2-7.4-8.7-13.6-9.4c-2.9-0.3-4.5-0.9-5.3-1.2
		c0.2-6.3,11.7-23.8,17.3-32.4c13.3-20.2,24.7-37.7,17.9-52.5c-2.2-4.8-7.1-10.8-18.1-12.9c2.7-5.1,10.2-15.9,30.9-36.1
		c12.9-12.5,27.7-25.6,41.3-37.3c-24.6,63.2-45.7,144.8-48.4,193.5C347.1,412.6,331.5,488.7,313.9,549.4z"/>
</g>
</svg>
