<?xml version="1.0" encoding="utf-8"?>
<!-- Generator: Adobe Illustrator 16.0.0, SVG Export Plug-In . SVG Version: 6.00 Build 0)  -->
<!DOCTYPE svg PUBLIC "-//W3C//DTD SVG 1.1//EN" "http://www.w3.org/Graphics/SVG/1.1/DTD/svg11.dtd">
<svg version="1.1" id="Layer_1" xmlns="http://www.w3.org/2000/svg" xmlns:xlink="http://www.w3.org/1999/xlink" x="0px" y="0px"
	 width="90px" height="129px" viewBox="-257 -29.9 90 129" style="enable-background:new -257 -29.9 90 129;" xml:space="preserve">
<style type="text/css">
<![CDATA[
	.st0{opacity:5.000000e-002;}
	.st1{fill:#FCB61E;}
]]>
</style>
<g class="st0">
	<path class="st1" d="M-177.4,72.8l1.7-3.9l-3.1,3.3c-0.2,0.2-5.1,5.5-8.2,13.4c-2,5-2.8,9.5-2.7,13.4l0.2,1h2v-1
		c0-4,0.8-8.2,2.6-12.6c1-2.5,2.2-4.7,3.3-6.6c-0.2,1-0.3,2.1-0.4,3.1c-0.2,4.2,1.7,11,3.3,16.1l0.2,1h2.1l0-1c-1.6-5-3.7-12-3.4-16
		C-179.7,78.5-177.5,72.9-177.4,72.8z"/>
	<path class="st1" d="M-196,99.1h2.5c0.2-3.3,1-6.9,2.6-10.9c-1,1.6-2.2,3.8-2.8,4.8C-194.6,94.8-195.3,96.5-196,99.1z"/>
	<path class="st1" d="M-178.2-28.1c0.2,0.6,0.4,1.2,0.5,1.7c0.6,2.1,1.7,6.6,1.8,7.7c0.5,8.7-0.5,15.2-6.7,26
		c2-7.6,3.2-17.3-0.8-23.4c-2.8-4.2-4.2-8.9-4.2-13.8l-0.4-1h-1.4l-0.4,1c0,6.3,2.2,11.3,4.6,15c6.4,10-3,32.2-3.1,32.5l-3.6,7.7
		c15.7-21.9,18.9-30.4,18.1-44c-0.1-1.5-1.2-6.2-1.9-8.2c-0.3-0.8-0.6-1.8-0.9-2.9l-0.3-1h-1.6l-0.3,1
		C-178.6-29.3-178.4-28.7-178.2-28.1z"/>
	<path class="st1" d="M-198,34.5l5.3-13.2l0.6-1.5c0.1-0.2,9.5-22.5,3.1-32.5c-0.7-1.1-1.4-2.3-2-3.6c-1.7-3.7-2.9-8.3-2.5-13.8
		h-2.5c-0.5,1.6-1,3.6-1.6,6.1c-2.1,8.8-1.8,15.6,0.8,19.6c6.3,9.5,2.7,24.7,2.6,24.8L-198,34.5z M-195-5.4
		c-2.3-3.5-2.5-9.8-0.5-17.9c0-0.1,0.1-0.3,0.1-0.4c0.4,2.9,1.2,5.8,2.5,8.5c0.6,1.3,1.3,2.6,2.1,3.8c3.1,4.8,2,13.6-0.2,21.3
		C-191,5-192-0.8-195-5.4z"/>
	<path class="st1" d="M-193.7,54.1c7.7-9.9,19-21.6,26.7-33.5v-4.1c-5.1,8.6-12.4,17.2-19.2,25.2c-3.3,3.9-6.4,7.5-9.2,11
		c-6.7,7.7-11.8,20.3-15.1,37.4c-0.6,3.2-1.1,6.2-1.5,9h2.2C-207.8,85.3-203.4,65.2-193.7,54.1z"/>
	<path class="st1" d="M-214.2,91.6c0.9-17.4,6.2-32.9,15.5-45l0.1-0.1c2.4-3.6,4.7-6.8,6.8-9.8c20.9-30.4,24.8-36,23.9-52.2
		c0.2,0.1,0.3,0.2,0.5,0.3c0.1,0.1,0.3,0.2,0.6,0.3v-2.7l-5.2-6.9c0,0,1.9,7,2,8.9c1,17.2-3.6,22-30.3,61
		c-9.5,12.4-15,28.4-15.9,46.2c-0.1,2.7-0.1,5.2,0,7.6h2.1C-214.4,96.8-214.4,94.3-214.2,91.6z"/>
	<path class="st1" d="M-202.6,99.1h2.3c4-9,10.1-20.2,18.8-31.5c5.9-7.5,10.8-18.3,14.5-27.5V34c-3.7,9.7-9.3,23.3-16.2,32.2
		C-192.3,78-198.5,89.7-202.6,99.1z"/>
	<path class="st1" d="M-206.8,99.1h2.2c2.1-13.3,6.3-31.2,15.2-41.3l0.1-0.1c2.7-3.4,5.8-7.1,9.1-10.9c4.5-5.2,9.2-10.8,13.4-16.4
		v-3.7c-7.5,10.6-17.3,20.9-24.1,29.7C-200.3,66.9-204.7,85.4-206.8,99.1z"/>
	<path class="st1" d="M-215.1,25.2c0,0,5.3,2,6.1-3.3c0.6-4.2-3.2-5.4-5-5.3c-2,0.2-4.3,0.7-6.6,4.6c0,0,2.5-4.6,1.9-8.4
		c-0.6-3.8-3-8.5-3-8.5s-2.3,4.7-2.9,8.5c-0.6,3.8,2,8.3,2,8.3c-2.3-3.9-4.6-4.4-6.6-4.5c-1.7-0.1-5.6,1.2-4.9,5.3
		c0.8,5.3,6.1,3.2,6.1,3.2s-2.5-2.2-0.3-3.7c1.8-1.1,6.3,1.6,5.9,3c-0.3,1-1,0.5-1.2,1.2c-0.1,0.3-2.2,1.5-2.2,1.6
		c0,0.4,3.2,0.8,3.2,0.8s-1.6,0.2-1.6,1.3c0,1.1,1.8,1,1.8,1s-0.1,0.4-0.1,2.1c0,1.7,1,3.4,1,3.4s1-1.8,0.9-3.4
		c0-1.7-0.2-2.1-0.2-2.1s1.9,0.1,1.8-1c-0.1-1.1-1.6-1.3-1.6-1.3s3.2-0.5,3.2-0.8c0-0.1-2.1-1.3-2.2-1.6c-0.2-0.7-0.9-0.2-1.2-1.2
		c-0.4-1.4,4.1-4.2,5.9-3.1C-212.6,23-215.1,25.2-215.1,25.2z"/>
	<path class="st1" d="M-256.7-17.2l-0.3-0.4v2.7c0.4,0.3,1.1,0.7,1.7,1.3c2.2,2,4.9,5.6,4.6,11.7c-0.2,5.9-2.7,12.1-6.4,18.3v4.1
		c4.8-7.5,8.2-15,8.5-22.3C-248-13.3-256.5-17-256.7-17.2z"/>
	<path class="st1" d="M-253,29.4c1.2-3.2,3.4-9.7,4.2-13.1c0.4-1.7,1.1-5.2,1.6-8.3c-1.8,6.2-5.4,12.5-9.8,18.6v3.7
		c1-1.3,1.9-2.6,2.8-4c-0.3,0.9-0.6,1.7-0.8,2.3c-0.6,1.6-1.3,3.4-2,5.4V40C-255.4,36.1-254.1,32.4-253,29.4z"/>
	<path class="st1" d="M-257,34c0.7-2,1.4-3.8,2-5.4c0.3-0.7,0.5-1.5,0.8-2.3"/>
	<path class="st1" d="M-209.7-10.8c0,0-0.9-12.2,0-19.2h-2.2c-0.5,6.4-0.1,11.8-0.1,11.8s-1.8-5.2-2.3-11.8h-2.1
		C-216-19.2-209.7-10.8-209.7-10.8z"/>
	<path class="st1" d="M-200.3-29.9h-2.3c-1.7,5.2-1.8,12.3-1.8,12.3s-1.2-7.4-0.2-12.3h-2.2c-1.5,11.4,3.5,19.8,3.5,19.8
		S-202.7-24.2-200.3-29.9z"/>
</g>
</svg>
