<?xml version="1.0" encoding="utf-8"?>
<!-- Generator: Adobe Illustrator 16.0.0, SVG Export Plug-In . SVG Version: 6.00 Build 0)  -->
<!DOCTYPE svg PUBLIC "-//W3C//DTD SVG 1.1//EN" "http://www.w3.org/Graphics/SVG/1.1/DTD/svg11.dtd">
<svg version="1.1" id="Layer_1" xmlns="http://www.w3.org/2000/svg" xmlns:xlink="http://www.w3.org/1999/xlink" x="0px" y="0px"
	 width="72.1px" height="72.1px" viewBox="-22.25 -24.406 72.1 72.1" enable-background="new -22.25 -24.406 72.1 72.1"
	 xml:space="preserve">
<g>
	<path fill="#FEE9E1" stroke="#BE68A9" stroke-linecap="round" stroke-linejoin="round" stroke-miterlimit="10" d="M35.171-9.726
		l5.447,0.796c6.533-10.586,14.281-20.525,14.281-20.525s-9.938,7.749-20.524,14.282L35.171-9.726z"/>
	<path fill="#FEE9E1" stroke="#BE68A9" stroke-linecap="round" stroke-linejoin="round" stroke-miterlimit="10" d="M-7.572-9.726
		l0.797-5.449c-10.585-6.533-20.524-14.28-20.524-14.28s7.748,9.939,14.281,20.525L-7.572-9.726z"/>
	<path fill="#FEE9E1" stroke="#BE68A9" stroke-linecap="round" stroke-linejoin="round" stroke-miterlimit="10" d="M-7.572,33.016
		l-5.446-0.796c-6.533,10.585-14.281,20.523-14.281,20.523s9.938-7.747,20.523-14.28L-7.572,33.016z"/>
	<path fill="#FEE9E1" stroke="#BE68A9" stroke-linecap="round" stroke-linejoin="round" stroke-miterlimit="10" d="M35.171,33.016
		l-0.796,5.447c10.586,6.532,20.524,14.28,20.524,14.28s-7.748-9.938-14.28-20.524L35.171,33.016z"/>
</g>
<text transform="matrix(1 0 0 1 275.3906 396.5393)" font-family="'MyriadPro-Regular'" font-size="12">http://moziru.com/explore/Stained%20Glass%20clipart%20medieval/#</text>
<path fill="none" stroke="#000000" stroke-width="0.1" stroke-linecap="round" stroke-linejoin="round" stroke-miterlimit="10" d="
	M14.653,41.428"/>
<path fill="#FEE9E1" stroke="#BE68A9" stroke-linecap="round" stroke-linejoin="round" stroke-miterlimit="10" d="M13.8-22.9
	c0,0,4.651,9.414,5.828,16.944s-3.872,16.61-3.872,16.61c4.5-7.8,9.199-8.8,13.1-9.101c3.473-0.268,11.1,2.301,9.854,10.579
	C37.13,22.62,26.637,18.63,26.637,18.63s4.986-4.417,0.525-7.267c-3.553-2.27-12.455,3.327-11.715,6.093
	c0.508,1.897,1.934,0.961,2.309,2.397c0.166,0.637,4.399,2.989,4.399,3.2c0,0.7-6.3,1.601-6.3,1.601s3.1,0.399,3.199,2.6
	c0.101,2.2-3.6,2-3.6,2s0.301,0.799,0.301,4.1s-1.908,6.834-1.908,6.834s-2.003-3.533-2.003-6.834s0.3-4.1,0.3-4.1s-3.699,0.2-3.6-2
	s3.199-2.6,3.199-2.6s-6.299-0.9-6.299-1.601c0-0.211,4.234-2.563,4.4-3.2c0.375-1.437,1.8-0.5,2.308-2.397
	c0.741-2.766-8.162-8.362-11.714-6.093c-4.461,2.85,0.525,7.267,0.525,7.267s-10.493,3.99-12.072-6.497
	C-12.355,3.855-4.728,1.286-1.255,1.554c3.9,0.301,8.6,1.301,13.1,9.101c0,0-5.05-9.08-3.872-16.61
	C9.148-13.486,13.8-22.9,13.8-22.9z"/>
<polygon fill="#FEE9E1" stroke="#BE68A9" stroke-linecap="round" stroke-linejoin="round" stroke-miterlimit="10" points="
	43.004,1.045 41.647,-0.906 39.271,-0.895 40.708,-2.788 39.964,-5.045 42.208,-4.263 44.124,-5.669 44.074,-3.293 46.003,-1.905 
	43.729,-1.218 "/>
<path fill="none" stroke="#BE68A9" stroke-linecap="round" stroke-linejoin="round" stroke-miterlimit="10" d="M-5.917-29.455"/>
<path fill="none" stroke="#BE68A9" stroke-linecap="round" stroke-linejoin="round" stroke-miterlimit="10" d="M23.417,67.928"/>
<path fill="none" stroke="#BE68A9" stroke-linecap="round" stroke-linejoin="round" stroke-miterlimit="10" d="M13.417-29.455"/>
</svg>
