<?xml version="1.0" encoding="utf-8"?>
<!-- Generator: Adobe Illustrator 16.0.0, SVG Export Plug-In . SVG Version: 6.00 Build 0)  -->
<!DOCTYPE svg PUBLIC "-//W3C//DTD SVG 1.1//EN" "http://www.w3.org/Graphics/SVG/1.1/DTD/svg11.dtd">
<svg version="1.1" id="Layer_1" xmlns="http://www.w3.org/2000/svg" xmlns:xlink="http://www.w3.org/1999/xlink" x="0px" y="0px"
	 width="30px" height="30px" viewBox="0 0 30 30" enable-background="new 0 0 30 30" xml:space="preserve">
<g>
	<path fill="none" stroke="#000000" stroke-width="2" stroke-linecap="round" stroke-miterlimit="10" d="M23.451,24.467
		c0,1.658-1.344,3-3,3H9.216c-1.657,0-3-1.342-3-3V12.754c0-1.657,1.343-3,3-3h11.235c1.656,0,3,1.343,3,3V24.467z"/>
</g>
<path d="M17.564,16.546c0-1.508-1.223-2.73-2.731-2.73c-1.508,0-2.73,1.223-2.73,2.73c0,1.064,0.616,1.978,1.506,2.428v4.904h2.451
	v-4.904C16.948,18.523,17.564,17.61,17.564,16.546z"/>
<path fill="none" stroke="#000000" stroke-width="2" stroke-linecap="round" stroke-miterlimit="10" d="M9.583,9.396V7.251
	c0-2.9,2.351-5.251,5.251-5.251c2.899,0,5.25,2.351,5.25,5.251v2.145"/>
</svg>
