<?xml version="1.0" encoding="utf-8"?>
<!-- Generator: Adobe Illustrator 16.0.0, SVG Export Plug-In . SVG Version: 6.00 Build 0)  -->
<!DOCTYPE svg PUBLIC "-//W3C//DTD SVG 1.1//EN" "http://www.w3.org/Graphics/SVG/1.1/DTD/svg11.dtd">
<svg version="1.1" id="Layer_1" xmlns="http://www.w3.org/2000/svg" xmlns:xlink="http://www.w3.org/1999/xlink" x="0px" y="0px"
	 width="140px" height="140px" viewBox="-18.25 -16.975 140 140" enable-background="new -18.25 -16.975 140 140"
	 xml:space="preserve">
<linearGradient id="SVGID_1_" gradientUnits="userSpaceOnUse" x1="18.8472" y1="46.6199" x2="76.7051" y2="46.6199" gradientTransform="matrix(0.6525 -0.6525 4.8419 4.8419 -191.5735 -154.1771)">
	<stop  offset="0.1823" style="stop-color:#090A0A;stop-opacity:0"/>
	<stop  offset="0.5517" style="stop-color:#000000;stop-opacity:0.7"/>
	<stop  offset="1" style="stop-color:#000000;stop-opacity:0"/>
</linearGradient>
<path fill="url(#SVGID_1_)" d="M120.507,57.8l-5.759,58.9c0,0-51.352-40.503-68.165-57.317C30.583,43.38-11.083-8.95-11.083-8.95
	L46-15.575L120.507,57.8z"/>
<g>
	<linearGradient id="SVGID_2_" gradientUnits="userSpaceOnUse" x1="-18.25" y1="-12.3865" x2="4.2114" y2="-12.3865">
		<stop  offset="0" style="stop-color:#006738"/>
		<stop  offset="0.4028" style="stop-color:#00471D"/>
		<stop  offset="0.7678" style="stop-color:#00300B"/>
		<stop  offset="1" style="stop-color:#002804"/>
	</linearGradient>
	<path fill="url(#SVGID_2_)" d="M4.211-9.198H-18.25c0,0,4.474-6.377,11.286-6.377c2.065,0.212,5.922,2.47,11.064,6.266
		C4.141-9.269,4.171-9.239,4.211-9.198z"/>
	<linearGradient id="SVGID_3_" gradientUnits="userSpaceOnUse" x1="117.3184" y1="123.0198" x2="117.3184" y2="100.6194">
		<stop  offset="0" style="stop-color:#006738"/>
		<stop  offset="0.4028" style="stop-color:#00471D"/>
		<stop  offset="0.7678" style="stop-color:#00300B"/>
		<stop  offset="1" style="stop-color:#002804"/>
	</linearGradient>
	<path fill="url(#SVGID_3_)" d="M120.507,111.734c0,6.813-6.377,11.286-6.377,11.286v-22.4
		C118.018,105.832,120.325,109.719,120.507,111.734z"/>
	<linearGradient id="SVGID_4_" gradientUnits="userSpaceOnUse" x1="127.9912" y1="75.9124" x2="36.6804" y2="-15.3984">
		<stop  offset="0" style="stop-color:#004F2C"/>
		<stop  offset="0.3251" style="stop-color:#006637"/>
		<stop  offset="0.6502" style="stop-color:#006738"/>
		<stop  offset="0.9606" style="stop-color:#004F2C"/>
	</linearGradient>
	<path fill="url(#SVGID_4_)" d="M120.507,111.734c-0.182-2.015-2.489-5.901-6.377-11.114c-2.656-3.565-6.049-7.749-10-12.372
		C93.173,75.426,73.187,63.176,57.436,47.409C39.073,29.029,24.768,7.289,11.063-3.875C8.55-5.922,6.217-7.745,4.1-9.309
		c-5.142-3.796-8.999-6.054-11.064-6.266c0,0,70.725-3.016,78.621,0c16.681,6.377,42.473,31.177,48.85,47.363
		C123.493,39.359,120.507,111.734,120.507,111.734z"/>
	<g>
		<g enable-background="new    ">
			<path fill="#F0F1F1" d="M49.896-2.816c4.846-4.847,7.27-7.27,12.117-12.115c1.063,0.908,1.592,1.363,2.648,2.278
				c-4.023,4.022-6.035,6.034-10.059,10.058c2.626,2.274,3.931,3.422,6.518,5.74c-0.823,0.823-1.235,1.233-2.059,2.057
				C55.434,1.951,53.601,0.348,49.896-2.816z"/>
			<path fill="#F0F1F1" d="M64.875,1.786c0.778-0.778,1.732-1.349,2.863-1.712c1.13-0.364,2.256-0.402,3.375-0.115
				c1.118,0.288,2.129,0.846,3.029,1.679c1.392,1.287,2.091,2.783,2.104,4.482c0.013,1.7-0.651,3.216-1.979,4.544
				c-1.339,1.339-2.891,2.027-4.662,2.069c-1.771,0.042-3.334-0.57-4.696-1.83c-0.844-0.78-1.464-1.704-1.867-2.773
				s-0.455-2.138-0.148-3.21C63.198,3.847,63.858,2.803,64.875,1.786z M67.266,4.196c-0.878,0.877-1.332,1.749-1.364,2.614
				c-0.032,0.865,0.272,1.59,0.907,2.178s1.399,0.847,2.295,0.78c0.896-0.067,1.784-0.543,2.673-1.433
				c0.866-0.867,1.322-1.734,1.36-2.6c0.038-0.866-0.26-1.595-0.895-2.182s-1.404-0.845-2.306-0.777
				C69.035,2.844,68.144,3.318,67.266,4.196z"/>
			<path fill="#F0F1F1" d="M73.381,18.524c2.4-4.642,3.598-6.96,5.99-11.593c0.933,0.888,1.398,1.333,2.325,2.227
				c-1.645,2.972-2.469,4.459-4.115,7.434c2.939-1.718,4.408-2.577,7.345-4.293c0.913,0.896,1.369,1.345,2.276,2.246
				c-1.728,2.908-2.593,4.364-4.322,7.274c2.997-1.643,4.496-2.463,7.489-4.103c0.919,0.928,1.376,1.394,2.289,2.328
				c-4.664,2.39-6.997,3.588-11.67,5.986c-0.897-0.904-1.351-1.355-2.254-2.254c1.664-2.886,2.498-4.327,4.16-7.21
				c-2.881,1.68-4.323,2.521-7.207,4.204C74.767,19.868,74.308,19.419,73.381,18.524z"/>
			<path fill="#F0F1F1" d="M92.861,32.569c0.75,1.118,1.125,1.678,1.869,2.801c-1.145,0.545-2.254,0.706-3.329,0.484
				c-1.074-0.22-2.086-0.832-3.034-1.828c-1.501-1.577-2.123-3.246-1.84-4.995c0.226-1.395,0.958-2.711,2.186-3.939
				c1.467-1.467,2.993-2.226,4.578-2.278c1.585-0.051,2.953,0.522,4.098,1.723c1.285,1.349,1.858,2.854,1.726,4.509
				c-0.133,1.656-1.114,3.366-2.94,5.126c-2.264-2.431-3.405-3.638-5.708-6.031c-0.678,0.711-1.033,1.444-1.065,2.199
				c-0.032,0.755,0.216,1.408,0.742,1.961c0.357,0.376,0.756,0.591,1.199,0.648C91.785,33.008,92.293,32.882,92.861,32.569z
				 M95.357,30.339c0.661-0.695,1.006-1.391,1.035-2.086c0.028-0.696-0.191-1.289-0.658-1.779c-0.499-0.524-1.1-0.769-1.799-0.737
				c-0.698,0.032-1.362,0.369-1.995,1.014C93.314,28.179,93.997,28.897,95.357,30.339z"/>
			<path fill="#F0F1F1" d="M95.99,36.523c1.047,0.833,1.57,1.25,2.611,2.089c-0.359,0.56-0.512,1.119-0.457,1.674
				c0.056,0.556,0.347,1.123,0.869,1.701c0.575,0.636,1.121,1.009,1.628,1.103c0.347,0.064,0.656-0.038,0.917-0.299
				c0.178-0.178,0.277-0.388,0.283-0.617s-0.142-0.618-0.433-1.134c-1.353-2.398-2.142-4.032-2.281-4.903
				c-0.192-1.208,0.135-2.235,0.984-3.085c0.767-0.767,1.701-1.098,2.804-0.989s2.262,0.828,3.471,2.163
				c1.15,1.271,1.804,2.419,1.964,3.436c0.161,1.017-0.04,2.03-0.604,3.038c-0.992-0.773-1.492-1.158-2.49-1.926
				c0.255-0.444,0.351-0.897,0.284-1.358s-0.331-0.948-0.796-1.461c-0.586-0.647-1.098-1.031-1.52-1.13
				c-0.287-0.067-0.537,0.001-0.731,0.196c-0.166,0.167-0.234,0.39-0.201,0.668c0.044,0.375,0.522,1.357,1.421,2.952
				c0.898,1.596,1.379,2.87,1.427,3.799c0.048,0.929-0.311,1.775-1.055,2.52c-0.811,0.811-1.827,1.148-3.048,1.015
				c-1.222-0.134-2.455-0.902-3.716-2.296c-1.145-1.266-1.815-2.505-1.999-3.727C95.139,38.73,95.359,37.588,95.99,36.523z"/>
			<path fill="#F0F1F1" d="M115.845,45.403c-0.747,0.747-1.119,1.12-1.866,1.866c-0.589-0.689-0.887-1.033-1.479-1.719
				c-1.427,1.427-2.139,2.141-3.565,3.568c-0.723,0.722-1.128,1.159-1.22,1.311c-0.091,0.153-0.126,0.326-0.104,0.52
				c0.022,0.194,0.106,0.373,0.25,0.54c0.2,0.233,0.562,0.496,1.09,0.789c-0.653,0.813-0.978,1.221-1.631,2.033
				c-0.734-0.354-1.418-0.899-2.055-1.638c-0.391-0.453-0.676-0.933-0.849-1.437c-0.173-0.504-0.218-0.953-0.141-1.347
				c0.078-0.394,0.29-0.816,0.606-1.262c0.227-0.319,0.753-0.902,1.581-1.73c1.543-1.543,2.313-2.315,3.856-3.858
				c-0.4-0.458-0.602-0.688-1.004-1.145c0.747-0.747,1.12-1.12,1.867-1.866c0.402,0.458,0.603,0.686,1.003,1.144
				c0.703-0.703,1.055-1.055,1.758-1.758c1.422,0.456,2.133,0.685,3.549,1.146c-1.25,1.25-1.875,1.875-3.125,3.125
				C114.96,44.371,115.256,44.714,115.845,45.403z"/>
		</g>
		<g enable-background="new    ">
			<path fill="#F0F1F1" d="M46.208,22.594c4.886-4.887,7.331-7.333,12.217-12.219c1.66,1.506,2.484,2.264,4.128,3.788
				c1.557,1.443,2.506,2.455,2.854,3.017c0.534,0.862,0.741,1.834,0.611,2.909s-0.682,2.1-1.654,3.072
				c-0.75,0.75-1.521,1.247-2.311,1.492c-0.79,0.245-1.546,0.31-2.268,0.193c-0.724-0.117-1.362-0.337-1.896-0.665
				c-0.722-0.443-1.664-1.221-2.823-2.296c-0.668-0.619-1.002-0.928-1.673-1.544c-1.843,1.843-2.766,2.766-4.608,4.609
				C47.759,24.003,47.243,23.532,46.208,22.594z M58.938,14.797c-1.387,1.387-2.079,2.08-3.466,3.467
				c0.563,0.518,0.844,0.776,1.404,1.295c1.01,0.935,1.745,1.5,2.212,1.69s0.93,0.237,1.394,0.146s0.877-0.317,1.238-0.679
				c0.444-0.444,0.677-0.938,0.696-1.48c0.02-0.542-0.143-1.042-0.481-1.501c-0.25-0.338-0.833-0.94-1.757-1.794
				C59.684,15.482,59.436,15.254,58.938,14.797z"/>
			<path fill="#F0F1F1" d="M60.231,35.798c-0.948-0.927-1.422-1.39-2.376-2.31c3.539-3.54,5.309-5.311,8.849-8.851
				c0.887,0.855,1.329,1.284,2.21,2.145c-0.503,0.503-0.756,0.755-1.259,1.259c0.972-0.227,1.702-0.285,2.19-0.18
				s0.924,0.345,1.305,0.721c0.537,0.531,0.905,1.19,1.107,1.979c-1.107,0.527-1.661,0.79-2.77,1.317
				c-0.141-0.648-0.381-1.139-0.723-1.476c-0.331-0.326-0.7-0.512-1.111-0.557s-0.918,0.103-1.522,0.446s-1.66,1.267-3.165,2.772
				C61.874,34.156,61.324,34.704,60.231,35.798z"/>
			<path fill="#F0F1F1" d="M74.71,30.127c0.867-0.867,1.298-1.3,2.165-2.167c0.937,0.938,1.404,1.408,2.335,2.352
				c-0.867,0.867-1.298,1.301-2.165,2.168C76.114,31.536,75.646,31.065,74.71,30.127z M64.659,40.177
				c3.54-3.54,5.311-5.31,8.851-8.85c0.937,0.938,1.405,1.407,2.336,2.351c-3.54,3.54-5.312,5.312-8.852,8.851
				C66.063,41.585,65.596,41.115,64.659,40.177z"/>
			<path fill="#F0F1F1" d="M83.139,46.631c-1.059-0.789-1.59-1.183-2.654-1.967c0.385-0.541,0.562-1.07,0.527-1.586
				s-0.264-0.998-0.692-1.448c-0.569-0.598-1.229-0.872-1.971-0.823c-0.743,0.048-1.59,0.545-2.534,1.49
				c-1.05,1.05-1.617,1.971-1.705,2.764c-0.088,0.794,0.159,1.494,0.739,2.103c0.435,0.456,0.917,0.704,1.445,0.742
				c0.529,0.039,1.155-0.191,1.886-0.688c0.737,1.104,1.106,1.656,1.838,2.765c-1.286,0.808-2.526,1.132-3.722,0.971
				c-1.196-0.161-2.347-0.827-3.459-1.993c-1.265-1.326-1.873-2.787-1.813-4.385c0.059-1.598,0.81-3.117,2.254-4.562
				c1.461-1.461,2.979-2.207,4.554-2.236s3.01,0.627,4.296,1.976c1.053,1.104,1.651,2.218,1.805,3.337
				C84.084,44.213,83.82,45.394,83.139,46.631z"/>
			<path fill="#F0F1F1" d="M86.318,57.255c0.727,1.14,1.086,1.711,1.806,2.856c-1.137,0.538-2.233,0.688-3.291,0.451
				c-1.058-0.235-2.048-0.868-2.972-1.889c-1.462-1.615-2.055-3.312-1.753-5.078c0.24-1.409,0.979-2.732,2.206-3.96
				c1.467-1.467,2.987-2.216,4.554-2.249c1.565-0.032,2.907,0.564,4.022,1.794c1.251,1.38,1.798,2.913,1.646,4.587
				c-0.153,1.674-1.144,3.391-2.969,5.149c-2.203-2.487-3.316-3.72-5.56-6.171c-0.679,0.712-1.037,1.448-1.078,2.212
				c-0.042,0.764,0.194,1.427,0.707,1.993c0.349,0.385,0.741,0.607,1.178,0.671C85.252,57.686,85.753,57.565,86.318,57.255z
				 M88.811,55.027c0.662-0.695,1.011-1.395,1.049-2.098c0.037-0.704-0.171-1.306-0.625-1.808c-0.486-0.537-1.077-0.792-1.768-0.768
				c-0.689,0.024-1.348,0.356-1.981,1C86.823,52.817,87.486,53.551,88.811,55.027z"/>
		</g>
	</g>
</g>
</svg>
