<?xml version="1.0" encoding="utf-8"?>
<!-- Generator: Adobe Illustrator 16.0.0, SVG Export Plug-In . SVG Version: 6.00 Build 0)  -->
<!DOCTYPE svg PUBLIC "-//W3C//DTD SVG 1.1//EN" "http://www.w3.org/Graphics/SVG/1.1/DTD/svg11.dtd">
<svg version="1.1" id="Layer_1" xmlns="http://www.w3.org/2000/svg" xmlns:xlink="http://www.w3.org/1999/xlink" x="0px" y="0px"
	 width="69.7px" height="87.5px" viewBox="0 0 69.7 87.5" enable-background="new 0 0 69.7 87.5" xml:space="preserve">
<g>
	<g>
		<linearGradient id="SVGID_1_" gradientUnits="userSpaceOnUse" x1="69.6714" y1="43.814" x2="21.1621" y2="43.814">
			<stop  offset="0.3399" style="stop-color:#03502C"/>
			<stop  offset="0.7487" style="stop-color:#0E8242"/>
			<stop  offset="1" style="stop-color:#03502C"/>
		</linearGradient>
		<path fill="url(#SVGID_1_)" d="M42.9,0.1c-3.7,17.1,26.8,79.9,26.8,79.9l-26.4-18l-17,25.4c0,0,2.3-79.4-5.1-87.3H42.9z"/>
		<g>
			<linearGradient id="SVGID_2_" gradientUnits="userSpaceOnUse" x1="21.1616" y1="43.814" x2="69.6714" y2="43.814">
				<stop  offset="0" style="stop-color:#03502C"/>
				<stop  offset="0.4876" style="stop-color:#0E8242"/>
				<stop  offset="1" style="stop-color:#03502C"/>
			</linearGradient>
			<path fill="url(#SVGID_2_)" d="M39.6,3.1c-0.1,8.6,4,23.2,12.5,44.5c3.6,9,7.4,17.6,10.2,23.8L45,59.6l-2.5-1.7l-1.7,2.5
				L29.5,77.3c0.1-7.8,0.2-19.1,0-30.6c-0.4-26.4-2.1-38.1-3.6-43.6H39.6 M42.9,0.1H21.2c7.5,7.9,5.1,87.3,5.1,87.3l17-25.4l26.4,18
				C69.7,80.1,39.2,17.2,42.9,0.1L42.9,0.1z"/>
		</g>
	</g>
	<linearGradient id="SVGID_3_" gradientUnits="userSpaceOnUse" x1="29.2393" y1="0.1411" x2="29.2393" y2="9.8535">
		<stop  offset="0" style="stop-color:#000000;stop-opacity:0.2"/>
		<stop  offset="0.1155" style="stop-color:#000000;stop-opacity:0.1769"/>
		<stop  offset="1" style="stop-color:#000000;stop-opacity:0"/>
	</linearGradient>
	<polygon fill="url(#SVGID_3_)" points="42.7,0.8 30,9.9 18,0.9 4.2,0.1 54.3,0.1 	"/>
	<g>
		<g>
			<path fill="#FFFFFF" d="M42.9,0.1c-4.7,13.4,9.6,84,9.6,84l-22-20.9l-22,20.9c0,0,17.4-74.3,9-84"/>
			<linearGradient id="SVGID_4_" gradientUnits="userSpaceOnUse" x1="9.570313e-002" y1="77.1265" x2="60.9479" y2="16.2743">
				<stop  offset="0" style="stop-color:#FFFFFF;stop-opacity:0"/>
				<stop  offset="5.377125e-002" style="stop-color:#F0F0F0;stop-opacity:2.822991e-002"/>
				<stop  offset="0.1571" style="stop-color:#C9C9C9;stop-opacity:8.246630e-002"/>
				<stop  offset="0.2994" style="stop-color:#8A8A8A;stop-opacity:0.1572"/>
				<stop  offset="0.4733" style="stop-color:#343434;stop-opacity:0.2485"/>
				<stop  offset="0.5714" style="stop-color:#000000;stop-opacity:0.3"/>
				<stop  offset="1" style="stop-color:#FFFFFF;stop-opacity:0"/>
			</linearGradient>
			<path fill="url(#SVGID_4_)" d="M43,0.2c-0.5,1.7-0.6,3.5-0.7,5.2c0,1.8,0,3.5,0.1,5.3c0.1,1.8,0.2,3.5,0.3,5.3
				c0.2,1.8,0.3,3.5,0.5,5.3c0.2,1.8,0.4,3.5,0.6,5.3c0.2,1.8,0.4,3.5,0.7,5.2c0.5,3.5,1,7,1.5,10.5l3.2,20.9c1.1,7,2.2,14,3.5,20.9
				l0,0c0,0.2-0.1,0.4-0.3,0.4c-0.1,0-0.2,0-0.3-0.1l-5.5-5.3l-5.5-5.2C37.5,70.4,33.8,67,30,63.6h0.7c-3.6,3.5-7.2,7.1-10.8,10.6
				c-3.6,3.5-7.2,7.1-10.9,10.6c-0.4,0.4-1,0.4-1.3,0c-0.2-0.2-0.3-0.6-0.2-0.9l0,0C9.1,77,10.4,70,11.8,63l2-10.5
				c0.7-3.5,1.3-7,1.9-10.5c1.2-7,2.2-14,3-21.1c0.4-3.5,0.6-7.1,0.6-10.6c0-1.8-0.1-3.5-0.3-5.3c-0.1-0.9-0.3-1.7-0.5-2.6
				c-0.2-0.8-0.6-1.7-1.1-2.3l-0.1-0.1L17.5,0l0.1,0.1c1.2,1.4,1.7,3.2,2,5c0.3,1.8,0.5,3.6,0.6,5.3c0.2,3.6,0,7.2-0.2,10.7
				c-0.4,7.1-1.4,14.2-2.4,21.3c-0.5,3.5-1.1,7-1.7,10.6c-0.6,3.5-1.3,7-2,10.5c-1.4,7-2.9,13.9-4.6,20.9l-1.6-0.9
				c3.7-3.5,7.4-6.9,11.1-10.4c3.7-3.5,7.5-6.8,11.2-10.3l0,0c0.2-0.2,0.5-0.2,0.7,0c3.6,3.5,7.2,7.1,10.9,10.6l5.5,5.3l5.5,5.2
				l-0.6,0.3c-1.4-6.9-2.9-13.8-4.3-20.8c-0.7-3.5-1.3-7-1.9-10.4c-0.6-3.5-1.1-7-1.6-10.5c-0.5-3.5-1-7-1.4-10.5
				c-0.4-3.5-0.7-7-1-10.6c-0.1-1.8-0.2-3.5-0.3-5.3c-0.1-1.8-0.1-3.5-0.1-5.3c0-1.8,0.1-3.6,0.2-5.3c0.2-1.8,0.4-3.6,1-5.2l0-0.1
				L43,0.2L43,0.2z"/>
		</g>
		<linearGradient id="SVGID_5_" gradientUnits="userSpaceOnUse" x1="50.6284" y1="3.2783" x2="16.6338" y2="87.418">
			<stop  offset="0" style="stop-color:#03502C"/>
			<stop  offset="0.4876" style="stop-color:#0E8242"/>
			<stop  offset="1" style="stop-color:#03502C"/>
		</linearGradient>
		<path fill="url(#SVGID_5_)" d="M42.9,0.1c-4.7,13.4,9.6,84,9.6,84l-22-20.9l-22,20.9c0,0,17.4-74.3,9-84H42.9z"/>
		<linearGradient id="SVGID_6_" gradientUnits="userSpaceOnUse" x1="12.1929" y1="40.9434" x2="55.8581" y2="44.7636">
			<stop  offset="0" style="stop-color:#03502C"/>
			<stop  offset="0.4876" style="stop-color:#0E8242"/>
			<stop  offset="1" style="stop-color:#03502C"/>
		</linearGradient>
		<path fill="url(#SVGID_6_)" d="M39.2,3.1c-1.7,15.4,5,54,8.5,72.3L32.5,61c-0.6-0.6-1.3-0.8-2.1-0.8s-1.5,0.3-2.1,0.8L13.5,75.1
			c1.6-7.3,3.7-18,5.6-28.9c4.4-26,4.5-37.7,2.9-43.1c-0.2-0.8-1.1-3-1.1-3h18.9L39.2,3.1 M42.9,0.1H17.5c8.4,9.6-9,84-9,84l22-20.9
			l22,20.9C52.4,84.1,38.1,13.5,42.9,0.1L42.9,0.1z"/>
	</g>
	<linearGradient id="SVGID_7_" gradientUnits="userSpaceOnUse" x1="-0.1001" y1="0.1411" x2="63.4331" y2="0.1411">
		<stop  offset="0" style="stop-color:#000000;stop-opacity:0"/>
		<stop  offset="0.266" style="stop-color:#000000;stop-opacity:0.8"/>
		<stop  offset="0.7833" style="stop-color:#000000;stop-opacity:0.8"/>
		<stop  offset="1" style="stop-color:#000000;stop-opacity:0"/>
	</linearGradient>
	
		<line fill="none" stroke="url(#SVGID_7_)" stroke-width="0.2" stroke-linecap="round" stroke-miterlimit="10" x1="0" y1="0.1" x2="63.3" y2="0.1"/>
</g>
</svg>
